<svg width="35" height="35" viewBox="0 0 35 35" fill="none" xmlns="http://www.w3.org/2000/svg">
<path d="M17.5001 2.9165H16.0417V16.0415H2.91675V17.4998C2.91736 20.3837 3.773 23.2026 5.37547 25.6003C6.97795 27.9979 9.25533 29.8666 11.9197 30.9701C14.5841 32.0737 17.5158 32.3625 20.3443 31.8C23.1728 31.2376 25.771 29.8491 27.8105 27.8103C29.8494 25.7708 31.2378 23.1725 31.8003 20.344C32.3627 17.5156 32.0739 14.5838 30.9704 11.9195C29.8669 9.25509 27.9982 6.97771 25.6005 5.37523C23.2029 3.77275 20.3839 2.91712 17.5001 2.9165ZM25.7542 25.754C24.2106 27.3003 22.2638 28.3821 20.1354 28.8761C18.0071 29.3701 15.7828 29.2565 13.7158 28.5483C11.6489 27.8401 9.82235 26.5656 8.44424 24.8701C7.06613 23.1746 6.19184 21.1262 5.92091 18.9582H18.9584V5.92067C21.1265 6.19159 23.1749 7.06589 24.8704 8.444C26.5659 9.82211 27.8403 11.6486 28.5485 13.7156C29.2568 15.7825 29.3704 18.0068 28.8763 20.1352C28.3823 22.2635 27.3006 24.2104 25.7542 25.754Z" fill="currentColor"/>
</svg>
