<svg width="40" height="40" viewBox="0 0 40 40" fill="none" xmlns="http://www.w3.org/2000/svg">
<rect width="40" height="40" fill="#4B5A68"/>
<path d="M36.6667 18.1668V6.8335C36.6667 4.3335 35.6 3.3335 32.95 3.3335H26.2167C23.5667 3.3335 22.5 4.3335 22.5 6.8335V18.1668C22.5 20.6668 23.5667 21.6668 26.2167 21.6668H32.95C35.6 21.6668 36.6667 20.6668 36.6667 18.1668Z" fill="currentColor"/>
<path d="M36.6667 33.167V30.167C36.6667 27.667 35.6 26.667 32.95 26.667H26.2167C23.5667 26.667 22.5 27.667 22.5 30.167V33.167C22.5 35.667 23.5667 36.667 26.2167 36.667H32.95C35.6 36.667 36.6667 35.667 36.6667 33.167Z" fill="currentColor"/>
<path d="M17.4999 21.833V33.1663C17.4999 35.6663 16.4333 36.6663 13.7833 36.6663H7.04992C4.39992 36.6663 3.33325 35.6663 3.33325 33.1663V21.833C3.33325 19.333 4.39992 18.333 7.04992 18.333H13.7833C16.4333 18.333 17.4999 19.333 17.4999 21.833Z" fill="currentColor"/>
<path d="M17.4999 6.8335V9.8335C17.4999 12.3335 16.4333 13.3335 13.7833 13.3335H7.04992C4.39992 13.3335 3.33325 12.3335 3.33325 9.8335V6.8335C3.33325 4.3335 4.39992 3.3335 7.04992 3.3335H13.7833C16.4333 3.3335 17.4999 4.3335 17.4999 6.8335Z" fill="currentColor"/>
</svg>
