<svg width="26" height="26" viewBox="0 0 26 26" fill="none" xmlns="http://www.w3.org/2000/svg">
<path d="M9.75375 18.0325L10.5538 17.895C10.7088 17.8675 10.8938 17.8275 11.1075 17.7725C13.75 17.11 15.5 15.135 15.5 13C15.5 10.3312 12.78 8 9.25 8C5.72 8 3 10.3312 3 13C3 14.5225 3.8775 15.9725 5.41375 16.9375L5.45875 16.9625L6.75 17.675V21.1287L9.75375 18.0325ZM10.9813 20.3575L6.3975 25.0825C6.22427 25.2612 6.00165 25.3841 5.75814 25.4355C5.51463 25.4869 5.26132 25.4644 5.03065 25.371C4.79999 25.2775 4.60247 25.1174 4.46339 24.911C4.32431 24.7046 4.25001 24.4614 4.25 24.2125V19.15C4.19416 19.1198 4.13914 19.0881 4.085 19.055C1.91125 17.69 0.5 15.4862 0.5 13C0.5 8.8575 4.4175 5.5 9.25 5.5C14.0825 5.5 18 8.8575 18 13C18 16.4075 15.3488 19.285 11.7175 20.1975C11.4741 20.2599 11.2286 20.3132 10.9813 20.3575ZM9.17 4.25C10.6825 2.00875 13.5125 0.5 16.75 0.5C21.5825 0.5 25.5 3.8575 25.5 8C25.5 10.4862 24.0875 12.69 21.915 14.055C21.8609 14.0881 21.8058 14.1198 21.75 14.15V19.2125C21.75 19.4614 21.6757 19.7046 21.5366 19.911C21.3975 20.1174 21.2 20.2775 20.9693 20.371C20.7387 20.4644 20.4854 20.4869 20.2419 20.4355C19.9984 20.3841 19.7757 20.2612 19.6025 20.0825L17.4338 17.8475L18.7375 15.6L19.25 16.1287V12.675L20.5413 11.9625L20.5863 11.9375C22.1238 10.9725 23 9.5225 23 8C23 5.33125 20.28 3 16.75 3C15.15 3 13.7175 3.47875 12.6287 4.25H9.17Z" fill="currentColor"/>
</svg>
