<svg width="29" height="31" viewBox="0 0 29 31" fill="none" xmlns="http://www.w3.org/2000/svg">
<path d="M23.7083 2.37484C21.2962 2.37484 19.3333 4.33775 19.3333 6.74984C19.3333 7.48192 19.5317 8.1615 19.8496 8.76963L18.2221 10.6684C17.2594 10.0144 16.1221 9.66535 14.9583 9.6665C13.8806 9.6665 12.8802 9.9815 12.0125 10.4919L9.95042 8.42984C10.36 7.69255 10.5777 6.86409 10.5833 6.02067C10.5833 3.20609 8.29375 0.916504 5.47917 0.916504C2.66458 0.916504 0.375 3.20609 0.375 6.02067C0.375 8.83525 2.66458 11.1248 5.47917 11.1248C6.35562 11.1248 7.16792 10.8828 7.88833 10.4919L9.95042 12.554C9.41626 13.4442 9.13118 14.4617 9.125 15.4998C9.125 16.9538 9.67917 18.2692 10.5615 19.293L8.09396 21.7605L8.13042 21.7969C7.53419 21.4958 6.87627 21.3371 6.20833 21.3332C3.79625 21.3332 1.83333 23.2961 1.83333 25.7082C1.83333 28.1203 3.79625 30.0832 6.20833 30.0832C8.62042 30.0832 10.5833 28.1203 10.5833 25.7082C10.5833 25.014 10.4069 24.368 10.1196 23.7861L10.156 23.8225L13.0056 20.973C13.6196 21.1917 14.27 21.3332 14.9583 21.3332C18.1754 21.3332 20.7917 18.7169 20.7917 15.4998C20.7854 14.5939 20.5661 13.7022 20.1515 12.8967L21.9787 10.7646C22.5096 10.995 23.0929 11.1248 23.7083 11.1248C26.1204 11.1248 28.0833 9.16192 28.0833 6.74984C28.0833 4.33775 26.1204 2.37484 23.7083 2.37484ZM6.20833 27.1665C5.82156 27.1665 5.45063 27.0129 5.17714 26.7394C4.90365 26.4659 4.75 26.0949 4.75 25.7082C4.75 25.3214 4.90365 24.9505 5.17714 24.677C5.45063 24.4035 5.82156 24.2498 6.20833 24.2498C6.59511 24.2498 6.96604 24.4035 7.23953 24.677C7.51302 24.9505 7.66667 25.3214 7.66667 25.7082C7.66667 26.0949 7.51302 26.4659 7.23953 26.7394C6.96604 27.0129 6.59511 27.1665 6.20833 27.1665ZM3.29167 6.02067C3.29167 4.81463 4.27312 3.83317 5.47917 3.83317C6.68521 3.83317 7.66667 4.81463 7.66667 6.02067C7.66667 7.22671 6.68521 8.20817 5.47917 8.20817C4.27312 8.20817 3.29167 7.22671 3.29167 6.02067ZM14.9583 18.4165C13.3498 18.4165 12.0417 17.1084 12.0417 15.4998C12.0417 13.8913 13.3498 12.5832 14.9583 12.5832C16.5669 12.5832 17.875 13.8913 17.875 15.4998C17.875 17.1084 16.5669 18.4165 14.9583 18.4165ZM23.7083 8.20817C23.3216 8.20817 22.9506 8.05452 22.6771 7.78103C22.4036 7.50754 22.25 7.13661 22.25 6.74984C22.25 6.36306 22.4036 5.99213 22.6771 5.71864C22.9506 5.44515 23.3216 5.2915 23.7083 5.2915C24.0951 5.2915 24.466 5.44515 24.7395 5.71864C25.013 5.99213 25.1667 6.36306 25.1667 6.74984C25.1667 7.13661 25.013 7.50754 24.7395 7.78103C24.466 8.05452 24.0951 8.20817 23.7083 8.20817Z" fill="currentColor"/>
</svg>
