<svg width="35" height="35" viewBox="0 0 35 35" fill="none" xmlns="http://www.w3.org/2000/svg">
<path d="M12.4742 29.0415L12.5111 29.3383L13.1531 34.5H21.8469L22.4889 29.3383L22.5247 29.0507L22.792 28.9388C23.1183 28.8021 23.4466 28.6373 23.777 28.4437C24.111 28.2478 24.4307 28.0383 24.7361 27.8151L24.9655 27.6474L25.227 27.7587L29.9559 29.7725L34.3037 22.2253L30.1698 19.0791L29.8984 18.8726L29.9917 18.5445C30.0385 18.3797 30.0597 18.2287 30.0597 18.0898V16.9085C30.0597 16.7451 30.0472 16.5721 30.0211 16.3891L29.9798 16.0986L30.2134 15.9209L34.3472 12.7747L29.9988 5.22629L25.2256 7.24187L24.9647 7.35204L24.7361 7.18492C24.4278 6.95965 24.1131 6.7486 23.7919 6.55172L12.4742 29.0415ZM12.4742 29.0415L12.1952 28.9336M12.4742 29.0415L12.1952 28.9336M12.1952 28.9336C11.8451 28.7983 11.5171 28.6365 11.2105 28.4487L11.2098 28.4483M12.1952 28.9336L11.2098 28.4483M11.2098 28.4483C10.8874 28.2514 10.5721 28.0403 10.264 27.8151L10.0353 27.648M11.2098 28.4483L10.0353 27.648M10.0353 27.648L9.7744 27.7581M10.0353 27.648L9.7744 27.7581M9.7744 27.7581L5.0012 29.7737L0.652792 22.2253L4.78664 19.0791L5.02015 18.9014M9.7744 27.7581L5.02015 18.9014M5.02015 18.9014L4.97886 18.6109M5.02015 18.9014L4.97886 18.6109M4.97886 18.6109C4.95287 18.4281 4.9403 18.2545 4.9403 18.0898V16.9085C4.9403 16.7451 4.95285 16.5721 4.97886 16.3891L5.02015 16.0986M4.97886 18.6109L5.02015 16.0986M5.02015 16.0986L4.78664 15.9209M5.02015 16.0986L4.78664 15.9209M4.78664 15.9209L0.652793 12.7747L5.0012 5.22629L9.7744 7.24187L10.0353 7.35204M4.78664 15.9209L10.0353 7.35204M10.0353 7.35204L10.264 7.18492M10.0353 7.35204L10.264 7.18492M10.264 7.18492C10.5693 6.96172 10.889 6.75218 11.223 6.55634C11.5534 6.36268 11.8817 6.19785 12.2081 6.0612L12.4753 5.94927M10.264 7.18492L12.4753 5.94927M12.4753 5.94927L12.5111 5.66171M12.4753 5.94927L12.5111 5.66171M12.5111 5.66171L13.1531 0.5H21.8469L22.4889 5.66171L22.5258 5.95853M12.5111 5.66171L22.5258 5.95853M22.5258 5.95853L22.8048 6.06637M22.5258 5.95853L22.8048 6.06637M22.8048 6.06637C23.1548 6.20167 23.4835 6.36341 23.7912 6.55132L22.8048 6.06637ZM15.2624 31.5606L15.316 32H15.7587H19.1978H19.6364L19.6935 31.5651L20.2598 27.2563C21.0792 27.0164 21.848 26.686 22.5647 26.2645C23.2746 25.8474 23.9313 25.3531 24.5343 24.7822L28.5392 26.4491L28.9468 26.6188L29.1656 26.2353L30.8634 23.2603L31.0807 22.8795L30.7315 22.6143L27.2699 19.9849C27.368 19.6485 27.4399 19.3003 27.486 18.9408C27.5468 18.4677 27.5771 17.9874 27.5771 17.5C27.5771 17.0126 27.5468 16.5316 27.486 16.0574L27.486 16.0572C27.4399 15.6986 27.368 15.3511 27.27 15.0151L30.7315 12.3857L31.0807 12.1205L30.8634 11.7397L29.1656 8.76468L28.9449 8.3779L28.5352 8.55256L24.5392 10.2563C23.9356 9.66155 23.2775 9.15362 22.565 8.73393L22.5642 8.73348C21.8486 8.31367 21.0811 7.98428 20.263 7.74466L19.7376 3.43943L19.684 3H19.2413H15.8022H15.3636L15.3065 3.43485L14.7402 7.74372C13.921 7.98344 13.1529 8.31319 12.4373 8.73365L12.4371 8.73377C11.7262 9.15187 11.0689 9.64677 10.4657 10.2178L6.46079 8.55089L6.05321 8.38125L5.8344 8.76468L4.13663 11.7397L3.91769 12.1233L4.27143 12.3879L7.73353 14.9772C7.63439 15.3284 7.56118 15.6808 7.51429 16.0342C7.45303 16.496 7.42289 16.9848 7.42289 17.5C7.42289 17.9874 7.4532 18.4615 7.51429 18.922C7.5613 19.2763 7.63476 19.6296 7.7343 19.9817L4.26846 22.6143L3.91933 22.8795L4.13663 23.2603L5.8344 26.2353L6.05512 26.6221L6.46476 26.4474L10.4609 24.7437C11.0646 25.3383 11.7233 25.8457 12.4368 26.2643C13.1516 26.6854 13.9188 27.0155 14.737 27.2553L15.2624 31.5606ZM21.5423 21.4786C20.4461 22.5803 19.1369 23.125 17.5871 23.125C16.0057 23.125 14.691 22.5787 13.6112 21.4807C12.5293 20.3793 11.9925 19.0619 11.9925 17.5C11.9925 15.9381 12.5294 14.6205 13.6114 13.5192C14.6911 12.4212 16.0058 11.875 17.5871 11.875C19.1369 11.875 20.4461 12.4197 21.5423 13.5214C22.6387 14.6233 23.1816 15.9401 23.1816 17.5C23.1816 19.0599 22.6387 20.3767 21.5423 21.4786ZM15.3834 19.7112C15.9853 20.3173 16.7296 20.625 17.5871 20.625C18.4447 20.625 19.1895 20.3172 19.7925 19.7112C20.3945 19.1062 20.699 18.3593 20.699 17.5C20.699 16.6407 20.3945 15.8938 19.7925 15.2888C19.1895 14.6828 18.4447 14.375 17.5871 14.375C16.7298 14.375 15.9856 14.6826 15.3838 15.2884C14.7805 15.8933 14.4751 16.6403 14.4751 17.5C14.4751 18.3595 14.7804 19.1064 15.3834 19.7112Z" fill="currentColor" stroke="#4B5A68"/>
</svg>
